<svg xmlns="http://www.w3.org/2000/svg" width="218.433" height="94.21" viewBox="0 0 218.433 94.21">
  <g id="グループ_547" data-name="グループ 547" transform="translate(-205.676 -550.188)">
    <g id="グループ_544" data-name="グループ 544" transform="translate(275.16 611.771)">
      <path id="パス_1227" data-name="パス 1227" d="M276.393,603.3a10.984,10.984,0,0,1,7.181,2.753l.491.435,1.01-1.511-.389-.33a13.063,13.063,0,0,0-8.293-3.124c-7.413,0-12.793,6.047-12.793,14.378,0,8.358,5.38,14.424,12.793,14.424a12.921,12.921,0,0,0,8.054-2.887l.408-.328-1.005-1.51-.489.409a11.025,11.025,0,0,1-6.967,2.538c-6.383,0-11.016-5.319-11.016-12.646C265.378,608.6,270.011,603.3,276.393,603.3Z" transform="translate(-263.6 -601.525)" fill="#fafafa"/>
      <path id="パス_1228" data-name="パス 1228" d="M299.458,601.827,289.783,629.9h1.889l2.58-7.47h12.04l2.58,7.47h1.888l-9.627-28.077Zm-4.585,18.831,5.4-15.77,5.4,15.77Z" transform="translate(-258.375 -601.465)" fill="#fafafa"/>
      <path id="パス_1229" data-name="パス 1229" d="M316.991,629.9h1.777V617.546h12.538v-1.777H318.769V603.6h14.439v-1.777H316.991Z" transform="translate(-252.944 -601.465)" fill="#fafafa"/>
      <path id="パス_1230" data-name="パス 1230" d="M357.32,603.6v-1.777H340.65V629.9h16.67v-1.777H342.427V615.735h12.538v-1.777H342.427V603.6Z" transform="translate(-248.223 -601.465)" fill="#fafafa"/>
    </g>
    <g id="グループ_545" data-name="グループ 545" transform="translate(272.888 553.524)">
      <path id="パス_1231" data-name="パス 1231" d="M280.664,553.055H279a1.135,1.135,0,0,0-1.134,1.134v2.806a1.483,1.483,0,0,1-.008.163,9.331,9.331,0,0,1-2.266,5.177l-13.556,13.754a1.137,1.137,0,0,0,0,1.6l1.152,1.152a1.124,1.124,0,0,0,.8.331H264a1.121,1.121,0,0,0,.8-.338l7.8-7.946.69.773a1.313,1.313,0,0,1,.119.151,8.329,8.329,0,0,1,1.46,4.771v18.266a1.135,1.135,0,0,0,1.134,1.134h1.562a1.135,1.135,0,0,0,1.134-1.134V576.579a12.349,12.349,0,0,0-2.516-7.482l-.878-.969,3.043-3.043a13.417,13.417,0,0,0,3.446-8v-2.9A1.135,1.135,0,0,0,280.664,553.055Z" transform="translate(-261.706 -552.952)" fill="#fafafa"/>
      <path id="パス_1232" data-name="パス 1232" d="M320.035,581.315l-1.648-3.012a1.124,1.124,0,0,0-.677-.543,1.109,1.109,0,0,0-.864.095l-1.383.759a1.136,1.136,0,0,0-.443,1.549l1.684,3.01a18.745,18.745,0,0,1,1.5,4.681l-16.032,1.737a3.54,3.54,0,0,1-.653.061h-.016a1.015,1.015,0,0,1-.78-.372,1.2,1.2,0,0,1-.258-.966,19.743,19.743,0,0,1,1.216-4.231l7.89-20.323a27.107,27.107,0,0,0,1.605-7.489l.006-2.168a1.136,1.136,0,0,0-1.134-1.134h-1.567a1.134,1.134,0,0,0-1.132,1.134v2.116a24.784,24.784,0,0,1-1.329,6.137l-7.994,20.37a23.1,23.1,0,0,0-1.557,6.869,3.654,3.654,0,0,0,1.017,2.689c1,1.132,2.693,1.236,4.236,1.236h.038a5.72,5.72,0,0,1,.821-.05l15.86-1.735v5.037a1.134,1.134,0,0,0,1.132,1.134h1.563a1.135,1.135,0,0,0,1.134-1.134v-7.007A21.625,21.625,0,0,0,320.035,581.315Z" transform="translate(-254.768 -552.969)" fill="#fafafa"/>
      <path id="パス_1233" data-name="パス 1233" d="M348.761,553.617l-2.314,0a1.136,1.136,0,0,0-1.134,1.135v1.563a1.135,1.135,0,0,0,1.134,1.134h2.248a2.042,2.042,0,0,1,1.364,2.108V564a1.134,1.134,0,0,0,1.132,1.134h1.669A1.135,1.135,0,0,0,353.993,564v-4.449C353.849,556.143,352.089,554.149,348.761,553.617Z" transform="translate(-245.02 -552.84)" fill="#fafafa"/>
      <path id="パス_1234" data-name="パス 1234" d="M347.91,571.949H341.3a2.129,2.129,0,0,1-2.13-2.109V554.1a1.135,1.135,0,0,0-1.134-1.134H336.47a1.134,1.134,0,0,0-1.132,1.134v15.753c.317,3.58,2.309,5.573,5.939,5.925h6.586a2.122,2.122,0,0,1,2.122,2.108v6.481a5.754,5.754,0,0,1-2.544,4.258l-6.784,3.62a1.14,1.14,0,0,0-.47,1.527l.747,1.423a1.131,1.131,0,0,0,1.539.471L349.3,592a8.785,8.785,0,0,0,3.233-3.252,8.947,8.947,0,0,0,1.384-4.358v-6.522C353.568,574.293,351.551,572.3,347.91,571.949Z" transform="translate(-247.011 -552.969)" fill="#fafafa"/>
      <path id="パス_1235" data-name="パス 1235" d="M389.914,591.436H377.388a2.126,2.126,0,0,1-2.123-2.109v-3.342a14.86,14.86,0,0,1,1.886-6.376l13.288-20.376a1.133,1.133,0,0,0-.332-1.569l-1.308-.849a1.133,1.133,0,0,0-1.568.333l-7.5,11.535-1.711-2.044a10.712,10.712,0,0,1-2.184-5.833v-6.661a1.135,1.135,0,0,0-1.134-1.134h-1.666a1.136,1.136,0,0,0-1.135,1.134v6.671a14.944,14.944,0,0,0,3.082,8.349l2.5,2.9-3.6,5.472a17.556,17.556,0,0,0-2.55,8.432v3.376c.355,3.578,2.381,5.571,6.039,5.923h12.542a1.136,1.136,0,0,0,1.134-1.135v-1.563A1.135,1.135,0,0,0,389.914,591.436Z" transform="translate(-239.827 -552.96)" fill="#fafafa"/>
    </g>
    <g id="グループ_546" data-name="グループ 546" transform="translate(205.676 550.188)">
      <path id="パス_1236" data-name="パス 1236" d="M207.283,551.807v44.329l22.164-22.164Z" transform="translate(-205.355 -549.865)" fill="#fafafa"/>
      <path id="パス_1237" data-name="パス 1237" d="M254.48,554.463a4.28,4.28,0,0,0-4.275-4.275l-40.253,0a4.282,4.282,0,0,0-4.275,4.277l.006,85.657a4.279,4.279,0,0,0,4.275,4.274l40.254,0a4.281,4.281,0,0,0,4.274-4.275Zm-44.7,42.831,41.3-41.3.006,82.6Zm20.3-25.106-18.6-18.6,37.194,0Zm-2.4,2.4-18.6,18.6,0-37.2Zm-18.593,65.532,0-38.725,39.6,39.6-38.726,0A.876.876,0,0,1,209.082,640.124Z" transform="translate(-205.676 -550.188)" fill="#fafafa"/>
    </g>
  </g>
</svg>
