<svg xmlns="http://www.w3.org/2000/svg" width="98.481" height="15.552" viewBox="0 0 98.481 15.552">
  <g id="グループ_615" data-name="グループ 615" transform="translate(-587.441 -395.835)" style="isolation: isolate">
    <path id="パス_1330" data-name="パス 1330" d="M590.943,402.722l5.274,7.426h-.373l-5.12-7.185-1.912,2v5.185H588.5V397.074h.308v7.449l7.1-7.449h.417Z" fill="none" stroke="#665039" stroke-linecap="round" stroke-linejoin="round" stroke-width="2.126"/>
    <path id="パス_1331" data-name="パス 1331" d="M603.883,397.074h.306v13.074h-.306Z" fill="none" stroke="#665039" stroke-linecap="round" stroke-linejoin="round" stroke-width="2.126"/>
    <path id="パス_1332" data-name="パス 1332" d="M615.943,397.383h-4.328v-.309h8.965v.309h-4.328v12.765h-.309Z" fill="none" stroke="#665039" stroke-linecap="round" stroke-linejoin="round" stroke-width="2.126"/>
    <path id="パス_1333" data-name="パス 1333" d="M626.312,403.6c0-3.912,2.528-6.7,5.933-6.7a6.1,6.1,0,0,1,3.845,1.452l-.176.263a5.641,5.641,0,0,0-3.669-1.406c-3.229,0-5.625,2.658-5.625,6.394s2.4,6.416,5.625,6.416a5.609,5.609,0,0,0,3.56-1.3l.175.263a6.005,6.005,0,0,1-3.735,1.34C628.84,410.324,626.312,407.512,626.312,403.6Z" fill="none" stroke="#665039" stroke-linecap="round" stroke-linejoin="round" stroke-width="2.126"/>
    <path id="パス_1334" data-name="パス 1334" d="M643.646,397.074h.307v5.889h8v-5.889h.309v13.074h-.309v-6.877h-8v6.877h-.307Z" fill="none" stroke="#665039" stroke-linecap="round" stroke-linejoin="round" stroke-width="2.126"/>
    <path id="パス_1335" data-name="パス 1335" d="M660.561,397.074H668.1v.309h-7.229v5.58h6.086v.308h-6.086v6.57H668.1v.307h-7.537Z" fill="none" stroke="#665039" stroke-linecap="round" stroke-linejoin="round" stroke-width="2.126"/>
    <path id="パス_1336" data-name="パス 1336" d="M684.859,397.074v13.074h-.417l-8.217-12.677v12.677h-.308V397.074h.417l8.219,12.679V397.074Z" fill="none" stroke="#665039" stroke-linecap="round" stroke-linejoin="round" stroke-width="2.126"/>
  </g>
</svg>
