<svg xmlns="http://www.w3.org/2000/svg" width="443.291" height="342.321" viewBox="0 0 443.291 342.321">
  <g id="グループ_539" data-name="グループ 539" transform="matrix(0.978, -0.208, 0.208, 0.978, -4512.246, 811.788)">
    <g id="グループ_537" data-name="グループ 537" transform="translate(4725.052 228.942)">
      <path id="パス_1190" data-name="パス 1190" d="M4947.445,559.418c-.014-.09-.109-.164-.191-.086a89.431,89.431,0,0,0-10.347,11.263c-2.934,3.9-5.655,8.23-6.892,12.993a15.207,15.207,0,0,0-.338,7.332c.156.614.544,1.693,1.371,1.594.874-.1,1.279-1.51,1.514-2.173.878-2.467,1.614-4.96,2.625-7.383,1.031-2.469,2.19-4.881,3.418-7.257,2.827-5.465,5.958-10.775,9-16.121C4947.67,559.468,4947.542,559.383,4947.445,559.418Z" transform="translate(-4925.784 -399.968)" fill="#505c36"/>
      <path id="パス_1191" data-name="パス 1191" d="M4955.949,530.162c.046-.078.02-.2-.094-.187a89.44,89.44,0,0,0-15.133,2.207c-4.734,1.17-9.581,2.814-13.546,5.729a15.216,15.216,0,0,0-4.891,5.473c-.266.575-.646,1.657.058,2.1.745.47,1.946-.364,2.547-.729,2.238-1.36,4.382-2.829,6.695-4.071,2.357-1.265,4.779-2.4,7.231-3.471,5.642-2.455,11.421-4.6,17.156-6.824C4956.092,530.344,4956.047,530.2,4955.949,530.162Z" transform="translate(-4921.94 -384.787)" fill="#505c36"/>
      <path id="パス_1192" data-name="パス 1192" d="M5019.335,458.62c.063-.083.049-.221-.082-.228a103.362,103.362,0,0,0-17.666.409c-5.594.678-11.383,1.884-16.338,4.671a17.588,17.588,0,0,0-6.377,5.591c-.386.622-.973,1.81-.228,2.419.788.643,2.283-.144,3.023-.479,2.758-1.246,5.422-2.631,8.249-3.73,2.88-1.12,5.818-2.087,8.781-2.968,6.814-2.025,13.744-3.671,20.633-5.421C5019.474,458.849,5019.442,458.674,5019.335,458.62Z" transform="translate(-4951.11 -347.63)" fill="#768751"/>
      <path id="パス_1193" data-name="パス 1193" d="M5000.887,513.015c-.05-.076-.167-.106-.209,0a89.406,89.406,0,0,0-4.879,14.495c-1.1,4.751-1.825,9.817-1.021,14.671a15.207,15.207,0,0,0,2.669,6.838c.392.5,1.185,1.326,1.9.9.755-.451.555-1.9.5-2.6-.2-2.612-.54-5.188-.6-7.812-.062-2.674.018-5.35.175-8.02.363-6.143,1.068-12.266,1.676-18.387C5001.114,512.97,5000.962,512.944,5000.887,513.015Z" transform="translate(-4959.471 -375.971)" fill="#505c36"/>
      <path id="パス_1194" data-name="パス 1194" d="M5051.243,464.488a.13.13,0,0,0-.213-.061,5.487,5.487,0,0,0-1.684,2.59.119.119,0,0,0,.093.155c-1.062,10.378-4.84,20.61-3.488,31.144a18.942,18.942,0,0,0,.745,3.787c.213.612.7,1.146,1.4.9.853-.3,1.215-1.366,1.506-2.124a29.017,29.017,0,0,0,1.106-3.622,59.282,59.282,0,0,0,1.159-7.22c.293-2.627.575-5.257.778-7.892C5053.1,476.231,5053.074,470.188,5051.243,464.488Z" transform="translate(-4985.991 -350.835)" fill="#505c36"/>
      <path id="パス_1195" data-name="パス 1195" d="M5109.452,403.383a.129.129,0,0,0-.219-.027c-.506.786-6.763,12.607-9.912,17.86-1.635,2.731-3.4,5.4-4.757,8.288a39.591,39.591,0,0,0-2.94,8.814c-.3,1.444-1.335,5.077.822,5.72,1.156.345,2.326-.65,3.075-1.4a16.606,16.606,0,0,0,2.377-3.29,98.617,98.617,0,0,0,8.029-16.637,80.681,80.681,0,0,0,2.953-9.926c.377-1.655.717-3.325.957-5.006A7.651,7.651,0,0,0,5109.452,403.383Z" transform="translate(-5009.521 -319.21)" fill="#505c36"/>
      <path id="パス_1196" data-name="パス 1196" d="M5191.4,344.383c-3.136,3.682-9.949,11.7-18.578,35.044a10.227,10.227,0,0,0-.609,5.077c.144.911.574,1.683,1.616,1.626a3.122,3.122,0,0,0,1.865-1,39.036,39.036,0,0,0,5.668-6.8c6.84-10.194,9.313-22.416,11.176-34.363A5.858,5.858,0,0,1,5191.4,344.383Z" transform="translate(-5051.454 -288.486)" fill="#505c36"/>
      <path id="パス_1197" data-name="パス 1197" d="M5277.749,285.452c-4.759,3.574-15.1,11.355-31.763,37.055a12.563,12.563,0,0,0-2.1,5.93c-.075,1.132.234,2.176,1.5,2.388a3.833,3.833,0,0,0,2.51-.7,47.868,47.868,0,0,0,8.641-6.638c10.964-10.392,17.232-24.4,22.694-38.236A7.183,7.183,0,0,1,5277.749,285.452Z" transform="translate(-5088.605 -258.093)" fill="#768751"/>
      <path id="パス_1198" data-name="パス 1198" d="M5192.785,228.942q-23.043,7.719-45.3,17.578a528.641,528.641,0,0,0-55.865,28.838q-18.025,10.706-35.169,22.809-8.487,5.989-16.733,12.309A527.3,527.3,0,0,0,4991.9,351.89a517.583,517.583,0,0,0-42.083,46.414c-.1.13-.283-.054-.18-.179q2.4-3,4.845-5.955a517.949,517.949,0,0,1,43.077-46.08,529.1,529.1,0,0,1,47.992-40.333q5.249-3.906,10.593-7.682,20.433-14.439,42.165-26.916a527.933,527.933,0,0,1,56.487-28.083q18.317-7.777,37.2-14.132Z" transform="translate(-4936.263 -228.942)" fill="#768751"/>
      <path id="パス_1199" data-name="パス 1199" d="M5077.388,396.673c-3.462,1.619-6.884,3.32-10.29,5.051-3.44,1.748-6.829,3.645-10.339,5.247a20.646,20.646,0,0,1-5.429,1.743c-1.063.161-2.408.311-2.5-1.119a5.425,5.425,0,0,1,.716-2.6c1.491-3.011,4.428-5.055,7.191-6.8a59.062,59.062,0,0,1,19.427-7.68,83.97,83.97,0,0,1,20.843-1.582A152.009,152.009,0,0,0,5077.388,396.673Z" transform="translate(-4987.628 -311.722)" fill="#768751"/>
      <path id="パス_1200" data-name="パス 1200" d="M5373.824,242.014c-1.352.911-10.807,14.907-15.805,20.339-4.921,5.347-10.128,10.609-13.732,16.979a36.071,36.071,0,0,0-2.294,4.842c-.573,1.5-1.268,3.29-.77,4.906.533,1.73,2.325,2.068,3.843,1.447a16.67,16.67,0,0,0,4.591-3.5,84.189,84.189,0,0,0,15.673-19.171,63.861,63.861,0,0,0,8.318-22.873q.212-1.43.352-2.87A.117.117,0,0,0,5373.824,242.014Z" transform="translate(-5138.916 -235.701)" fill="#768751"/>
      <path id="パス_1201" data-name="パス 1201" d="M5169.528,323.951a.125.125,0,0,0-.031-.187,49.1,49.1,0,0,0-22.482-7.374,110.739,110.739,0,0,0-12.453-.238,49.505,49.505,0,0,0-11.441,1.581,30.874,30.874,0,0,0-5.372,2.019,12.9,12.9,0,0,0-4.186,2.925c-.937,1.083-1.756,2.731-1.186,4.172.5,1.271,1.914,1.688,3.159,1.789a32.721,32.721,0,0,0,6.063-.336c2.122-.229,4.233-.537,6.341-.861,4.493-.693,8.977-1.39,13.506-1.8q6.637-.606,13.313-.6,3.316,0,6.629.153A24.506,24.506,0,0,0,5167.1,325a9.816,9.816,0,0,0,2.476-.824C5169.691,324.123,5169.631,323.972,5169.528,323.951Z" transform="translate(-5020.433 -274.052)" fill="#8fa362"/>
      <path id="パス_1202" data-name="パス 1202" d="M5296.1,258.276l-.1.037a.1.1,0,0,0-.044-.124,19.319,19.319,0,0,0-6.078-2.041q-3.284-.676-6.613-1.1a88.748,88.748,0,0,0-27.436.8,66.043,66.043,0,0,0-12.378,3.376,22.619,22.619,0,0,0-9.169,6.19c-.913,1.1-2.225,3.1-.7,4.278a5.656,5.656,0,0,0,2.653.877,11.111,11.111,0,0,0,2.921-.029,31.142,31.142,0,0,0,6.424-1.833q3.218-1.162,6.5-2.112c4.424-1.273,8.925-2.26,13.452-3.092,9.06-1.664,18.222-2.656,27.3-4.18a16.566,16.566,0,0,0,3.319-.843C5296.292,258.437,5296.235,258.225,5296.1,258.276Z" transform="translate(-5082.917 -242.094)" fill="#8fa362"/>
    </g>
    <g id="グループ_538" data-name="グループ 538" transform="translate(4541.628 229.113)">
      <path id="パス_1203" data-name="パス 1203" d="M4869.144,229.3a359.937,359.937,0,0,0-49.062,17.05,364.5,364.5,0,0,0-63.125,34.965,358.872,358.872,0,0,0-33.773,26.475q-11.223,9.944-21.594,20.8c-19.079,19.983-35.955,41.906-52.78,63.78s-33.667,43.813-52.691,63.842q-3.523,3.706-7.143,7.318c-.115.115-.312-.048-.195-.166,19.779-19.743,37.131-41.7,54.169-63.8,16.919-21.946,33.623-44.129,52.342-64.6a371.607,371.607,0,0,1,27.424-27.062,355.738,355.738,0,0,1,27.764-22.314,364.312,364.312,0,0,1,61.666-35.986,360.134,360.134,0,0,1,55.993-20.3Z" transform="translate(-4566.021 -229.297)" fill="#768751"/>
      <path id="パス_1204" data-name="パス 1204" d="M4568.016,705.508c-4.174,4.52-8.286,9.111-12.638,13.461-1.893,1.89-3.84,3.726-5.881,5.455-2,1.7-4.156,3.153-6.243,4.737-.559.425-1.776,1.238-1.612,2.1.157.818,1.3.861,1.935.824a15.21,15.21,0,0,0,6.885-2.544c4.166-2.621,7.472-6.527,10.3-10.5a89.5,89.5,0,0,0,7.6-13.271c.049-.1-.05-.17-.14-.156C4568.223,705.51,4568.1,705.414,4568.016,705.508Z" transform="translate(-4541.627 -475.812)" fill="#505c36"/>
      <path id="パス_1205" data-name="パス 1205" d="M4637.61,656.919c-.237,6.147-.381,12.309-.865,18.443-.21,2.666-.5,5.327-.928,7.968-.42,2.592-1.111,5.1-1.668,7.656-.149.687-.546,2.095.14,2.645.65.521,1.549-.191,2.007-.63a15.208,15.208,0,0,0,3.581-6.406c1.465-4.7,1.441-9.816,1.006-14.673a89.419,89.419,0,0,0-2.841-15.027c-.029-.109-.149-.1-.208-.028C4637.77,656.786,4637.615,656.791,4637.61,656.919Z" transform="translate(-4589.397 -450.623)" fill="#505c36"/>
      <path id="パス_1206" data-name="パス 1206" d="M4681.544,588.093c-2.015,6.816-3.929,13.676-6.218,20.406-.995,2.926-2.075,5.824-3.306,8.659-1.207,2.783-2.695,5.391-4.046,8.1-.363.727-1.209,2.19-.6,3,.58.768,1.79.227,2.427-.135a17.577,17.577,0,0,0,5.834-6.155c2.978-4.844,4.408-10.582,5.3-16.145a103.435,103.435,0,0,0,1.094-17.636c0-.131-.139-.15-.225-.09C4681.76,587.989,4681.586,587.951,4681.544,588.093Z" transform="translate(-4606.617 -414.998)" fill="#768751"/>
      <path id="パス_1207" data-name="パス 1207" d="M4590.356,669.769c-6.141.359-12.288.812-18.439.924-2.673.048-5.351.019-8.021-.152-2.62-.167-5.18-.613-7.782-.92-.7-.083-2.137-.341-2.619.4-.456.7.34,1.524.821,1.936a15.21,15.21,0,0,0,6.723,2.945c4.817,1,9.909.484,14.7-.419a89.466,89.466,0,0,0,14.681-4.283c.105-.039.083-.157.007-.21C4590.506,669.914,4590.485,669.761,4590.356,669.769Z" transform="translate(-4547.702 -457.195)" fill="#505c36"/>
      <path id="パス_1208" data-name="パス 1208" d="M4640.392,592.269c-2.471.94-4.915,1.952-7.352,2.977a59.372,59.372,0,0,0-6.6,3.152,28.91,28.91,0,0,0-3.16,2.085c-.646.493-1.565,1.141-1.612,2.044-.04.742.612,1.058,1.258,1.09a18.954,18.954,0,0,0,3.843-.355c10.487-1.681,19.234-8.2,28.889-12.148a.12.12,0,0,0,.175.045,5.489,5.489,0,0,0,2.008-2.348.13.13,0,0,0-.117-.187C4651.739,588.478,4645.936,590.162,4640.392,592.269Z" transform="translate(-4583.065 -415.316)" fill="#505c36"/>
      <path id="パス_1209" data-name="パス 1209" d="M4722.592,493.223c-1.666.329-3.316.758-4.948,1.222a81.052,81.052,0,0,0-9.755,3.478,98.753,98.753,0,0,0-16.185,8.9,16.633,16.633,0,0,0-3.159,2.549c-.711.789-1.642,2.009-1.236,3.145.758,2.121,4.329.893,5.756.517a39.57,39.57,0,0,0,8.645-3.406c2.809-1.51,5.383-3.413,8.022-5.192,5.078-3.423,16.549-10.3,17.308-10.848a.129.129,0,0,0-.039-.217A7.659,7.659,0,0,0,4722.592,493.223Z" transform="translate(-4616.996 -365.803)" fill="#505c36"/>
      <path id="パス_1210" data-name="パス 1210" d="M4797.281,405.283c-4.839,2.419-15.367,7.673-43.85,11.937a13.794,13.794,0,0,1-5.947-.319c-1.018-.3-1.819-.869-1.552-1.883a3.182,3.182,0,0,1,1.516-1.654,46.908,46.908,0,0,1,8.916-4.345c13.036-4.886,27.548-5.108,41.625-4.778A5.574,5.574,0,0,0,4797.281,405.283Z" transform="translate(-4647.369 -319.814)" fill="#8fa362"/>
      <path id="パス_1211" data-name="パス 1211" d="M4743.136,506.791a83.916,83.916,0,0,1,.4,20.9,59.072,59.072,0,0,1-5.8,20.068c-1.479,2.916-3.236,6.034-6.092,7.8a5.436,5.436,0,0,1-2.522.959c-1.433.043-1.41-1.309-1.351-2.383a20.592,20.592,0,0,1,1.221-5.57c1.261-3.647,2.828-7.2,4.242-10.791,1.4-3.555,2.77-7.122,4.053-10.722A152.126,152.126,0,0,0,4743.136,506.791Z" transform="translate(-4637.984 -372.956)" fill="#768751"/>
      <path id="パス_1212" data-name="パス 1212" d="M4826.7,406.455a9.78,9.78,0,0,0-1.529,2.112,24.5,24.5,0,0,0-1.886,5.394c-.57,2.136-16.525,36.93-17.966,42.38-.51,1.927-1.7,3.73-2.142,5.681-.278,1.218-.3,2.689.757,3.551,1.2.977,3.022.69,4.336.122a9.292,9.292,0,0,0,4.046-3.113c12.306-18.171,16.806-48.176,14.76-55.929a.126.126,0,0,0-.17-.085C4826.914,406.462,4826.789,406.36,4826.7,406.455Z" transform="translate(-4676.946 -320.992)" fill="#768751"/>
      <path id="パス_1213" data-name="パス 1213" d="M4898.763,317.472a.127.127,0,0,0-.074-.175c-7.594-2.579-37.838-.172-56.818,10.844a9.286,9.286,0,0,0-3.387,3.821c-.658,1.271-1.07,3.066-.178,4.333.785,1.118,2.253,1.194,3.488,1,1.977-.308,3.858-1.368,5.816-1.743,5.537-1.06,41.354-14.562,43.524-14.983a24.464,24.464,0,0,0,5.511-1.508,9.761,9.761,0,0,0,2.214-1.379C4898.961,317.6,4898.868,317.469,4898.763,317.472Z" transform="translate(-4694.954 -274.365)" fill="#8fa362"/>
      <path id="パス_1214" data-name="パス 1214" d="M5028.153,240.744a.125.125,0,0,0,.019-.189c-2.78-2.943-11.257-7.464-21.795-11.1L4966,229.5a3.694,3.694,0,0,0,2.533,2.131c1.892.653,4.049.595,5.956,1.18,5.388,1.651,43.362,6.463,45.477,7.107a24.7,24.7,0,0,0,5.578,1.246,9.766,9.766,0,0,0,2.6-.187A.121.121,0,0,0,5028.153,240.744Z" transform="translate(-4761.324 -229.376)" fill="#8fa362"/>
      <path id="パス_1215" data-name="パス 1215" d="M4946.721,307.269a9.813,9.813,0,0,0-1.918,1.767,24.516,24.516,0,0,0-2.918,4.912c-.983,1.981-23.522,32.917-26.017,37.973-.882,1.787-2.4,3.32-3.227,5.144-.513,1.139-.833,2.575.037,3.63.985,1.2,2.825,1.276,4.226.98a9.287,9.287,0,0,0,4.584-2.248c15.665-15.368,26.03-43.883,25.563-51.889a.126.126,0,0,0-.148-.117C4946.931,307.319,4946.829,307.194,4946.721,307.269Z" transform="translate(-4733.44 -269.651)" fill="#768751"/>
      <path id="パス_1216" data-name="パス 1216" d="M5062.854,246.73a9.767,9.767,0,0,0-2.267,1.292,24.5,24.5,0,0,0-3.946,4.133c-1.4,1.71-30.3,26.8-33.868,31.173-1.26,1.544-3.088,2.7-4.3,4.29-.756.994-1.387,2.323-.777,3.546.692,1.387,2.467,1.876,3.9,1.9a9.288,9.288,0,0,0,4.971-1.163c18.713-11.464,35.207-36.93,36.546-44.836a.126.126,0,0,0-.119-.148C5063.046,246.826,5062.975,246.681,5062.854,246.73Z" transform="translate(-4787.962 -238.317)" fill="#768751"/>
    </g>
  </g>
</svg>
