<svg xmlns="http://www.w3.org/2000/svg" width="405.711" height="122.139" viewBox="0 0 405.711 122.139">
  <g id="グループ_619" data-name="グループ 619" transform="translate(-397 -288.542)">
    <g id="グループ_540" data-name="グループ 540" transform="translate(397 288.542)">
      <path id="パス_1217" data-name="パス 1217" d="M4289.339,790.719c-13.091,8.226-29.1,6.259-43.6,4.07a341.355,341.355,0,0,0-47.291-4.049,317.837,317.837,0,0,0-46.888,2.965c-15.965,2.2-31.6,6.314-47.59,8.349-16.05,2.044-32.006.548-47.982-1.425a459.666,459.666,0,0,0-48.6-3.894,372.508,372.508,0,0,0-48.286,2.319c-14.749,1.673-30.78,6.081-45.213.579a26.364,26.364,0,0,1-15.016-13.531c-2.968-6.543-3.262-14.042-1.96-21.026,1.43-7.672,4.622-14.865,7.894-21.9q5.028-10.81,10.376-21.47,1.393-2.779,2.809-5.547l.526.144c14.415,3.877,29.517,5.625,44.307,7.437,30.784,3.771,61.765,5.593,92.735,7.014,31.115,1.428,62.257,2.445,93.333,4.616,30.984,2.165,61.94,5.486,92.425,11.538q11.342,2.251,22.569,5.023c7.255,1.8,14.654,3.535,21.618,6.289,6.587,2.605,10.635,11.667,10.793,19.824C4296.44,785.354,4295.179,787.049,4289.339,790.719Z" transform="translate(-3896.177 -680.893)" fill="#dbcac6"/>
      <path id="パス_1218" data-name="パス 1218" d="M4307.371,669.066l-.163,2.862-5.54,97.1-385.2.4,3.778-71.527,1.588-30.064Z" transform="translate(-3901.659 -667.838)" fill="#fff"/>
      <path id="パス_1219" data-name="パス 1219" d="M3923.231,667.838l-1.587,30.064c16.432,6.486,34.668,8.143,52.364,7.192,28.09-1.5,55.125-9.68,82.621-14.925,15.026-2.87,30.312-4.887,45.644-4.361,14.929.514,29.4,3.971,43.834,7.564,13.956,3.472,28.044,6.965,42.487,7.459,14.883.506,29.686-2,44.089-5.547,14.914-3.669,29.64-8.224,44.271-12.875,10.565-3.36,21.188-6.74,31.652-10.479l.162-2.862Z" transform="translate(-3903.058 -667.838)" fill="#faf2f2"/>
    </g>
    <g id="MEMBER" transform="translate(188.702 101.634)" style="isolation: isolate">
      <g id="グループ_611" data-name="グループ 611" style="isolation: isolate">
        <path id="パス_1308" data-name="パス 1308" d="M331.7,253.627l-1.5-28.7-10.9,25.8h-.9l-10.9-25.8-1.5,28.7h-.7l1.5-29.752h1l11.051,26.1,11.051-26.1h1l1.5,29.752Z" fill="#b68f5c"/>
        <path id="パス_1309" data-name="パス 1309" d="M350.8,223.875h17.151v.7H351.5v12.7h13.851v.7H351.5v14.951h16.451v.7H350.8Z" fill="#b68f5c"/>
        <path id="パス_1310" data-name="パス 1310" d="M411.649,253.627l-1.5-28.7-10.9,25.8h-.9l-10.9-25.8-1.5,28.7h-.7l1.5-29.752h1l11.05,26.1,11.051-26.1h1l1.5,29.752Z" fill="#b68f5c"/>
        <path id="パス_1311" data-name="パス 1311" d="M448.7,244.626c0,6.9-5.4,9.351-11.4,9.351a53.879,53.879,0,0,1-6.55-.35V223.875h7.8c3.6,0,6.551,2.151,6.551,5.4a6.458,6.458,0,0,1-4.4,5.75A10.159,10.159,0,0,1,448.7,244.626Zm-17.251-20.05v10.15h7.3a5.7,5.7,0,0,0,5.65-5.45c0-2.95-2.85-4.7-5.851-4.7ZM448,244.626a9.486,9.486,0,0,0-9.25-9.2h-7.3v17.551a47,47,0,0,0,5.8.3C443.6,253.278,448,250.627,448,244.626Z" fill="#b68f5c"/>
        <path id="パス_1312" data-name="パス 1312" d="M465.6,223.875h17.151v.7H466.3v12.7h13.85v.7H466.3v14.951h16.451v.7H465.6Z" fill="#b68f5c"/>
        <path id="パス_1313" data-name="パス 1313" d="M517.1,253.627h-.8c-1.25-4.25-4.9-10.2-8.45-12h-6.6v12h-.7V223.875h7c5.1,0,9.451,3,9.451,8.952,0,5.25-3.5,8.2-7.951,8.7C512.5,243.876,515.848,249.477,517.1,253.627Zm-9.551-12.7c4.7,0,8.75-2.649,8.75-8.1,0-5.551-4.05-8.251-8.75-8.251h-6.3v16.35Z" fill="#b68f5c"/>
      </g>
      <g id="グループ_612" data-name="グループ 612" style="isolation: isolate">
        <path id="パス_1314" data-name="パス 1314" d="M331.7,253.627l-1.5-28.7-10.9,25.8h-.9l-10.9-25.8-1.5,28.7h-.7l1.5-29.752h1l11.051,26.1,11.051-26.1h1l1.5,29.752Z" fill="none" stroke="#baa272" stroke-linecap="round" stroke-linejoin="round" stroke-width="5"/>
        <path id="パス_1315" data-name="パス 1315" d="M350.8,223.875h17.151v.7H351.5v12.7h13.851v.7H351.5v14.951h16.451v.7H350.8Z" fill="none" stroke="#baa272" stroke-linecap="round" stroke-linejoin="round" stroke-width="5"/>
        <path id="パス_1316" data-name="パス 1316" d="M411.649,253.627l-1.5-28.7-10.9,25.8h-.9l-10.9-25.8-1.5,28.7h-.7l1.5-29.752h1l11.05,26.1,11.051-26.1h1l1.5,29.752Z" fill="none" stroke="#baa272" stroke-linecap="round" stroke-linejoin="round" stroke-width="5"/>
        <path id="パス_1317" data-name="パス 1317" d="M448.7,244.626c0,6.9-5.4,9.351-11.4,9.351a53.879,53.879,0,0,1-6.55-.35V223.875h7.8c3.6,0,6.551,2.151,6.551,5.4a6.458,6.458,0,0,1-4.4,5.75A10.159,10.159,0,0,1,448.7,244.626Zm-17.251-20.05v10.15h7.3a5.7,5.7,0,0,0,5.65-5.45c0-2.95-2.85-4.7-5.851-4.7ZM448,244.626a9.486,9.486,0,0,0-9.25-9.2h-7.3v17.551a47,47,0,0,0,5.8.3C443.6,253.278,448,250.627,448,244.626Z" fill="none" stroke="#baa272" stroke-linecap="round" stroke-linejoin="round" stroke-width="5"/>
        <path id="パス_1318" data-name="パス 1318" d="M465.6,223.875h17.151v.7H466.3v12.7h13.85v.7H466.3v14.951h16.451v.7H465.6Z" fill="none" stroke="#baa272" stroke-linecap="round" stroke-linejoin="round" stroke-width="5"/>
        <path id="パス_1319" data-name="パス 1319" d="M517.1,253.627h-.8c-1.25-4.25-4.9-10.2-8.45-12h-6.6v12h-.7V223.875h7c5.1,0,9.451,3,9.451,8.952,0,5.25-3.5,8.2-7.951,8.7C512.5,243.876,515.848,249.477,517.1,253.627Zm-9.551-12.7c4.7,0,8.75-2.649,8.75-8.1,0-5.551-4.05-8.251-8.75-8.251h-6.3v16.35Z" fill="none" stroke="#baa272" stroke-linecap="round" stroke-linejoin="round" stroke-width="5"/>
      </g>
    </g>
  </g>
</svg>
