<svg xmlns="http://www.w3.org/2000/svg" width="75.722" height="15.552" viewBox="0 0 75.722 15.552">
  <g id="グループ_614" data-name="グループ 614" transform="translate(-358.958 -395.835)" style="isolation: isolate">
    <path id="パス_1325" data-name="パス 1325" d="M360.021,403.6c0-3.912,2.527-6.7,5.933-6.7,3.427,0,5.954,2.791,5.954,6.7,0,3.932-2.527,6.723-5.954,6.723C362.548,410.324,360.021,407.533,360.021,403.6Zm11.58,0c0-3.736-2.4-6.394-5.647-6.394-3.23,0-5.625,2.658-5.625,6.394,0,3.756,2.395,6.416,5.625,6.416C369.206,410.017,371.6,407.357,371.6,403.6Z" fill="none" stroke="#665039" stroke-linecap="round" stroke-linejoin="round" stroke-width="2.126"/>
    <path id="パス_1326" data-name="パス 1326" d="M378.65,409.006l.176-.264a5.078,5.078,0,0,0,3.34,1.252c2.087,0,3.845-1.164,3.845-3.076,0-1.6-1.34-2.439-2.9-3.3-1.956-1.055-4.2-2.044-4.2-4.131,0-1.56,1.538-2.571,3.494-2.571a5.848,5.848,0,0,1,3.6,1.055l-.176.263a5.53,5.53,0,0,0-3.427-1.01c-1.78,0-3.186.878-3.186,2.263,0,1.889,2,2.746,3.977,3.822,1.626.879,3.12,1.825,3.12,3.6,0,2.132-1.934,3.385-4.153,3.385A5.4,5.4,0,0,1,378.65,409.006Z" fill="none" stroke="#665039" stroke-linecap="round" stroke-linejoin="round" stroke-width="2.126"/>
    <path id="パス_1327" data-name="パス 1327" d="M400.928,406.523h-6.241l-1.252,3.625h-.33l4.5-13.074h.417l4.483,13.074h-.33Zm-.11-.308-3.01-8.789-3.011,8.789Z" fill="none" stroke="#665039" stroke-linecap="round" stroke-linejoin="round" stroke-width="2.126"/>
    <path id="パス_1328" data-name="パス 1328" d="M412.153,402.722l5.274,7.426h-.374l-5.119-7.185-1.912,2v5.185h-.308V397.074h.308v7.449l7.1-7.449h.418Z" fill="none" stroke="#665039" stroke-linecap="round" stroke-linejoin="round" stroke-width="2.126"/>
    <path id="パス_1329" data-name="パス 1329" d="M432.035,406.523H425.8l-1.252,3.625h-.33l4.5-13.074h.417l4.482,13.074h-.329Zm-.109-.308-3.01-8.789-3.011,8.789Z" fill="none" stroke="#665039" stroke-linecap="round" stroke-linejoin="round" stroke-width="2.126"/>
  </g>
</svg>
