<svg xmlns="http://www.w3.org/2000/svg" width="92.528" height="15.2" viewBox="0 0 92.528 15.2">
  <g id="グループ_616" data-name="グループ 616" transform="translate(-597.216 -430.817)" style="isolation: isolate">
    <path id="パス_1337" data-name="パス 1337" d="M605.508,436.253a3.984,3.984,0,0,1-4.153,4.307h-2.768v4.394h-.308V431.88h3.076A4.015,4.015,0,0,1,605.508,436.253Zm-.308,0a3.715,3.715,0,0,0-3.845-4.065h-2.768v8.064h2.768A3.683,3.683,0,0,0,605.2,436.253Z" fill="none" stroke="#665039" stroke-linecap="round" stroke-linejoin="round" stroke-width="2.126"/>
    <path id="パス_1338" data-name="パス 1338" d="M620.469,444.954h-.352c-.55-1.867-2.153-4.482-3.714-5.273h-2.9v5.273H613.2V431.88h3.076c2.242,0,4.154,1.318,4.154,3.933a3.669,3.669,0,0,1-3.494,3.824A11.169,11.169,0,0,1,620.469,444.954Zm-4.2-5.581c2.066,0,3.846-1.165,3.846-3.56,0-2.439-1.78-3.625-3.846-3.625H613.5v7.185Z" fill="none" stroke="#665039" stroke-linecap="round" stroke-linejoin="round" stroke-width="2.126"/>
    <path id="パス_1339" data-name="パス 1339" d="M628.9,431.88h.308v13.074H628.9Z" fill="none" stroke="#665039" stroke-linecap="round" stroke-linejoin="round" stroke-width="2.126"/>
    <path id="パス_1340" data-name="パス 1340" d="M646.523,431.88,641.8,444.954h-.44l-4.723-13.074h.329l4.614,12.744,4.614-12.744Z" fill="none" stroke="#665039" stroke-linecap="round" stroke-linejoin="round" stroke-width="2.126"/>
    <path id="パス_1341" data-name="パス 1341" d="M659.133,441.329h-6.24l-1.252,3.625h-.33l4.5-13.074h.417l4.483,13.074h-.329Zm-.11-.308-3.01-8.79-3.01,8.79Z" fill="none" stroke="#665039" stroke-linecap="round" stroke-linejoin="round" stroke-width="2.126"/>
    <path id="パス_1342" data-name="パス 1342" d="M669.611,432.188h-4.329v-.308h8.965v.308h-4.328v12.766h-.308Z" fill="none" stroke="#665039" stroke-linecap="round" stroke-linejoin="round" stroke-width="2.126"/>
    <path id="パス_1343" data-name="パス 1343" d="M681.145,431.88h7.536v.308h-7.229v5.581h6.086v.308h-6.086v6.569h7.229v.308h-7.536Z" fill="none" stroke="#665039" stroke-linecap="round" stroke-linejoin="round" stroke-width="2.126"/>
  </g>
</svg>
