<svg xmlns="http://www.w3.org/2000/svg" width="77.679" height="15.552" viewBox="0 0 77.679 15.552">
  <g id="グループ_622" data-name="グループ 622" transform="translate(-127.562 -395.835)" style="isolation: isolate">
    <path id="パス_1320" data-name="パス 1320" d="M132.954,397.383h-4.329v-.309h8.965v.309h-4.328v12.765h-.308Z" fill="none" stroke="#fff" stroke-linecap="round" stroke-linejoin="round" stroke-width="2.126"/>
    <path id="パス_1321" data-name="パス 1321" d="M143.323,403.6c0-3.912,2.527-6.7,5.932-6.7,3.428,0,5.955,2.791,5.955,6.7,0,3.932-2.527,6.723-5.955,6.723C145.85,410.324,143.323,407.533,143.323,403.6Zm11.579,0c0-3.736-2.395-6.394-5.647-6.394-3.23,0-5.625,2.658-5.625,6.394,0,3.756,2.395,6.416,5.625,6.416C152.507,410.017,154.9,407.357,154.9,403.6Z" fill="none" stroke="#fff" stroke-linecap="round" stroke-linejoin="round" stroke-width="2.126"/>
    <path id="パス_1322" data-name="パス 1322" d="M165.248,402.722l5.273,7.426h-.373l-5.12-7.185-1.911,2v5.185h-.308V397.074h.308v7.449l7.1-7.449h.417Z" fill="none" stroke="#fff" stroke-linecap="round" stroke-linejoin="round" stroke-width="2.126"/>
    <path id="パス_1323" data-name="パス 1323" d="M186.229,397.074l-4.307,7.91v5.164h-.307v-5.164l-4.307-7.91h.352l4.109,7.537,4.108-7.537Z" fill="none" stroke="#fff" stroke-linecap="round" stroke-linejoin="round" stroke-width="2.126"/>
    <path id="パス_1324" data-name="パス 1324" d="M192.291,403.6c0-3.912,2.527-6.7,5.933-6.7,3.427,0,5.954,2.791,5.954,6.7,0,3.932-2.527,6.723-5.954,6.723C194.818,410.324,192.291,407.533,192.291,403.6Zm11.58,0c0-3.736-2.4-6.394-5.647-6.394-3.23,0-5.625,2.658-5.625,6.394,0,3.756,2.4,6.416,5.625,6.416C201.476,410.017,203.871,407.357,203.871,403.6Z" fill="none" stroke="#fff" stroke-linecap="round" stroke-linejoin="round" stroke-width="2.126"/>
  </g>
</svg>
